<svg version="1.1" id="Ebene_1" xmlns="http://www.w3.org/2000/svg" xmlns:xlink="http://www.w3.org/1999/xlink" x="0px" y="0px" viewBox="0 0 153.6 116.8" style="enable-background:new 0 0 153.6 116.8;" xml:space="preserve">
<style type="text/css">
	.st0{fill:#005B9D;}
	.st1{fill:#929292;}
	.st2{fill:#F7931D;}
</style>
    <g>
	<path class="st0" d="M41,51.7c6,0,9,0.5,11.7,1.9c5,2.6,8.2,8.7,8.2,15.7c0,6.9-3.1,13-7.9,15.6c-3.1,1.7-5.4,2.1-12.7,2.1h-6.4   V51.7H41z M42.1,82.3c4.6,0,6.4-0.4,8.5-1.7c3-2,4.6-6,4.6-11.3c0-5.3-1.8-9.3-5-11.3c-2.1-1.3-3.6-1.5-9.4-1.5h-1.5v25.9H42.1z"/>
        <path class="st1" d="M87,51.7v3.8L69.9,82.3h16.7V87H63.4v-4.3l17-26.4H64.8v-4.6H87z"/>
        <path class="st0" d="M99.9,51.7l15.5,27v-27h5.2V87h-5.7L99.2,60.1V87H94V51.7H99.9z"/>
        <path class="st0" d="M148.8,66.4v4.7h-14.2v11.2h15.9V87h-21.3V51.7h20.9v4.7h-15.4v9.9H148.8z"/>
        <path class="st0" d="M80.3,14.8c-5-6.5-12.3-10.8-20.6-12.2c-0.1,0-0.3,0.1-0.4,0.1c-0.1,0.1-0.2,0.3-0.2,0.4v1.3   c0,0.3,0.2,0.5,0.5,0.6c7.5,1.3,14.2,5.3,18.8,11.3c4.6,5.9,6.8,14.8,6.2,22.4c0,0.2,0,0.3,0.1,0.4c0.1,0.1,0.3,0.2,0.4,0.2h1.3   c0.3,0,0.5-0.2,0.6-0.5C87.6,30.7,85.2,21.2,80.3,14.8z"/>
        <path class="st0" d="M65.5,13.5c-2.2-1.6-4.6-2.8-7.2-3.6c-2.6-0.8-5.3-1.2-8-1.2c-0.6,0-1.2,0-1.7,0.1c-0.3,0-0.5,0.3-0.5,0.6v1.3   c0,0.2,0.1,0.3,0.2,0.4c0.1,0.1,0.2,0.2,0.4,0.2c0,0,0,0,0,0c0.6,0,1.1-0.1,1.6-0.1c5,0,9.7,1.5,13.8,4.4   c5.1,3.6,8.5,10.4,9.6,16.7c0,0.3,0.3,0.5,0.6,0.5h1.3c0.2,0,0.3-0.1,0.4-0.2c0.1-0.1,0.2-0.3,0.1-0.5   C74.9,25.1,71.1,17.6,65.5,13.5z"/>
        <path class="st0" d="M35.8,16.8c-0.2-0.2-0.5-0.3-0.8-0.3c0,0,0,0,0,0c-1.5,0.1-3,0.3-4.6,0.8c-3.2,1.2-6.3,2.7-9.1,4.7   c-3.6,2.5-6.8,5.6-9.5,9.2c-5.3,7.2-8.1,15.7-8.1,24.8c0,4.1,0.6,8.2,1.8,12.1c0.1,0.3,0.5,2,0.6,2.2c-1.6,0.3-2.9-1-3.2-0.9   c-0.2,0-0.3,0.3-0.2,0.7c0,0.6,0.4,1,0.9,1.5c0.7,0.6,1.4,1,2.2,1.2c-0.2,1.1-0.7,2.2-1.3,3.3c-0.3,0.6-0.6,1.3-0.8,1.9   c-0.7,1.9-0.9,3.9-0.7,6.1C3.3,87,4.7,89.6,6.1,92c0.9,1.6,1.9,3.3,2.4,5.1c0.6,1.7,1.1,3.5,1.7,5.2c0.5,1.6,1.1,3.2,1.6,4.9   l0.2,0.5c0.4,1.1,2,4.9,3.4,5.9c0.3,0.2,1,0.6,1.2,0.6c0.3,0,0.7-0.2,0.8-1.1c0.1-1-0.2-1.9-0.6-2.7c-0.2-0.7-0.5-1.3-0.5-1.9   c0-0.4,0-0.9,0.1-1.4c0.1-1.3,0.2-2.8-0.7-4.1c-0.5-0.7-0.5-1.3,0-2.3c0.8-1.4-0.2-2.3-0.8-2.9c-0.5-0.4-0.7-0.7-0.7-1.1   c0-0.7,0.1-1.3,0.2-1.9c0.2-1.2,0.4-2.4,0-3.8c-0.6-2.1-2.3-2.9-4.1-3.7c-1.4-0.6-2.2-1.4-2.5-2.5c-0.8-2.4,1.2-5.8,2.5-8l0.3-0.6   c1.1-1.8,2.2-3.7,2.9-5.8c0.7-2.2,0.7-4.2,0.6-6.1c-0.8-3.5-1.2-7.2-1.2-11c0-6.5,1.2-12.7,3.4-18c2.5-6.1,6.2-10.6,10.5-12.8   c0.8-0.4,1.4-0.8,2-1c2-0.8,2.5-1.3,5.7-2.2c0.6-0.2,1.5-0.3,1.5-0.9l0-0.8C36.2,17.3,36.1,17,35.8,16.8z"/>
        <path class="st2" d="M61.2,22.2c-3.9-3.9-9.1-6.1-14.7-6.1l-0.5,0c-0.3,0-0.6,0.3-0.6,0.6V18c0,0.3,0.3,0.6,0.6,0.6   c0,0,0.3,0,0.3,0c5,0,9.6,1.9,13.1,5.4c3.2,3.2,5.1,8.9,5.3,13.5c0,0.3,0.3,0.5,0.6,0.5h1.3c0.2,0,0.3-0.1,0.4-0.2   c0.1-0.1,0.2-0.3,0.2-0.4C67,32.1,64.8,25.8,61.2,22.2z"/>
</g>
</svg>